<svg width="1912" height="632" viewBox="0 0 1912 632" fill="none" xmlns="http://www.w3.org/2000/svg">
<g clip-path="url(#clip0_232_23)">
<rect x="21.2656" y="33.1963" width="564.574" height="564.574" rx="282.287" fill="#132A13"/>
<g filter="url(#filter0_d_232_23)">
<path d="M326.589 14.166C330.968 14.166 334.603 17.8301 336.751 21.6461C361.097 64.8883 571.993 130.552 344.698 301.381C340.09 304.845 340.163 312.143 344.961 315.339C409.245 358.161 480.036 464.006 314.529 596.013C313.136 597.124 311.345 597.77 309.562 597.77H-40.2659C-44.6452 597.77 -48.1953 594.22 -48.1953 589.841V22.0954C-48.1953 17.7161 -44.6452 14.166 -40.2659 14.166H326.589Z" fill="#D9D9D9"/>
</g>
<g filter="url(#filter1_d_232_23)">
<path d="M313.269 14.166C317.648 14.166 321.283 17.8301 323.431 21.6461C347.777 64.8883 558.673 130.552 331.378 301.381C326.769 304.845 326.843 312.143 331.64 315.339C395.925 358.161 466.716 464.006 301.209 596.013C299.815 597.124 298.024 597.77 296.242 597.77H-53.5862C-57.9655 597.77 -61.5156 594.22 -61.5156 589.841V22.0954C-61.5156 17.7161 -57.9655 14.166 -53.5862 14.166H313.269Z" fill="#1A3143"/>
</g>
<g filter="url(#filter2_d_232_23)">
<path d="M262.906 32.6573C196.395 110.437 93.7464 287.147 215.249 371.756C306.094 408.046 431.431 505.943 206.023 607.219L-122.73 561.016L-42.4434 -10.2568L262.906 32.6573Z" fill="#132A13"/>
</g>
<g filter="url(#filter3_di_232_23)">
<path d="M223.683 39.54C168.643 122.128 91.5871 303.306 223.683 367.32C318.694 389.616 456.436 465.716 247.316 591.744H-84.668V39.54H223.683Z" fill="#31572C"/>
</g>
<g filter="url(#filter4_d_232_23)">
<g clip-path="url(#clip1_232_23)">
<path d="M244.246 135.96C244.246 127.202 251.346 120.102 260.105 120.102H315.611C341.887 120.102 363.187 141.402 363.187 167.678V174.022C363.187 196.794 344.727 215.254 321.954 215.254H260.105C251.346 215.254 244.246 208.154 244.246 199.396V135.96Z" fill="white"/>
<g filter="url(#filter5_ddii_232_23)">
<path d="M244.246 143.89C244.246 138.109 248.932 133.423 254.713 133.423H308.565C332.776 133.423 352.403 153.05 352.403 177.261V177.261C352.403 198.244 335.393 215.254 314.41 215.254H260.105C251.346 215.254 244.246 208.154 244.246 199.396V143.89Z" fill="white"/>
</g>
</g>
<g clip-path="url(#clip2_232_23)">
<path d="M244.246 431.57C244.246 422.811 251.346 415.711 260.105 415.711H315.611C341.887 415.711 363.187 437.012 363.187 463.287V469.631C363.187 492.403 344.727 510.864 321.954 510.864H260.105C251.346 510.864 244.246 503.764 244.246 495.005V431.57Z" fill="white"/>
<g filter="url(#filter6_ddii_232_23)">
<path d="M244.246 439.499C244.246 433.718 248.932 429.032 254.713 429.032H308.565C332.776 429.032 352.403 448.659 352.403 472.871V472.871C352.403 493.854 335.393 510.864 314.41 510.864H260.105C251.346 510.864 244.246 503.763 244.246 495.005V439.499Z" fill="white"/>
</g>
</g>
</g>
<g filter="url(#filter7_dd_232_23)">
<path fill-rule="evenodd" clip-rule="evenodd" d="M131.965 500.67C141.578 512.866 156.483 520.696 173.216 520.696C202.207 520.696 225.709 497.194 225.709 468.203C225.709 446.791 212.888 428.373 194.505 420.207C95.393 363.228 66.9539 221.217 141.951 128.35C-11.4036 239.044 55.3629 439.341 131.823 500.556C131.87 500.594 131.918 500.632 131.965 500.67Z" fill="#132A13" fill-opacity="0.11" shape-rendering="crispEdges"/>
</g>
</g>
<path d="M738.048 461.259C714.932 461.259 695.145 456.683 678.687 447.529C662.229 438.283 649.608 425.43 640.824 408.972C632.04 392.422 627.648 373.236 627.648 351.415C627.648 329.594 632.04 310.454 640.824 293.996C649.608 277.445 662.229 264.593 678.687 255.44C695.145 246.193 714.932 241.57 738.048 241.57C761.163 241.57 780.95 246.193 797.408 255.44C813.866 264.593 826.487 277.445 835.271 293.996C844.055 310.454 848.447 329.594 848.447 351.415C848.447 373.236 844.055 392.422 835.271 408.972C826.487 425.43 813.866 438.283 797.408 447.529C780.95 456.683 761.163 461.259 738.048 461.259ZM738.602 404.673C745.075 404.673 750.669 402.5 755.384 398.154C760.1 393.809 763.752 387.614 766.341 379.569C768.93 371.525 770.224 361.955 770.224 350.86C770.224 339.672 768.93 330.102 766.341 322.151C763.752 314.107 760.1 307.912 755.384 303.566C750.669 299.22 745.075 297.047 738.602 297.047C731.76 297.047 725.889 299.22 720.988 303.566C716.088 307.912 712.343 314.107 709.754 322.151C707.165 330.102 705.871 339.672 705.871 350.86C705.871 361.955 707.165 371.525 709.754 379.569C712.343 387.614 716.088 393.809 720.988 398.154C725.889 402.5 731.76 404.673 738.602 404.673Z" fill="#2E5229"/>
<path d="M956.072 337.546V457.376H879.514V244.344H952.189V284.842H954.408C959.031 271.343 967.168 260.756 978.818 253.082C990.561 245.407 1004.24 241.57 1019.87 241.57C1034.94 241.57 1048.03 245.038 1059.12 251.972C1070.31 258.814 1078.95 268.246 1085.06 280.266C1091.25 292.286 1094.3 306.016 1094.21 321.457V457.376H1017.65V337.546C1017.74 327.005 1015.06 318.73 1009.61 312.72C1004.24 306.71 996.755 303.705 987.139 303.705C980.852 303.705 975.351 305.092 970.635 307.865C966.012 310.547 962.452 314.43 959.956 319.516C957.459 324.508 956.165 330.518 956.072 337.546ZM1209.12 460.15C1193.95 460.15 1179.99 456.174 1167.23 448.222C1154.56 440.271 1144.39 428.204 1136.72 412.023C1129.14 395.843 1125.35 375.455 1125.35 350.86C1125.35 325.156 1129.32 304.259 1137.27 288.171C1145.32 272.083 1155.67 260.294 1168.34 252.804C1181.1 245.315 1194.51 241.57 1208.56 241.57C1219.1 241.57 1228.35 243.42 1236.3 247.118C1244.25 250.724 1250.91 255.578 1256.27 261.681C1261.64 267.691 1265.7 274.302 1268.48 281.514H1269.59V173.334H1346.15V457.376H1270.14V422.425H1268.48C1265.52 429.637 1261.27 436.11 1255.72 441.842C1250.26 447.483 1243.61 451.967 1235.75 455.296C1227.98 458.532 1219.1 460.15 1209.12 460.15ZM1237.41 401.344C1244.44 401.344 1250.45 399.31 1255.44 395.242C1260.53 391.081 1264.41 385.256 1267.09 377.766C1269.86 370.185 1271.25 361.216 1271.25 350.86C1271.25 340.319 1269.86 331.304 1267.09 323.815C1264.41 316.233 1260.53 310.454 1255.44 306.478C1250.45 302.41 1244.44 300.376 1237.41 300.376C1230.38 300.376 1224.37 302.41 1219.38 306.478C1214.48 310.454 1210.69 316.233 1208.01 323.815C1205.42 331.304 1204.12 340.319 1204.12 350.86C1204.12 361.401 1205.42 370.462 1208.01 378.044C1210.69 385.533 1214.48 391.312 1219.38 395.38C1224.37 399.356 1230.38 401.344 1237.41 401.344Z" fill="#1A3143"/>
<path d="M1460.29 337.546V457.376H1383.73V173.334H1457.52V284.842H1459.73C1464.54 271.251 1472.54 260.664 1483.73 253.082C1494.92 245.407 1508.37 241.57 1524.09 241.57C1539.16 241.57 1552.24 244.991 1563.34 251.834C1574.53 258.676 1583.17 268.107 1589.27 280.127C1595.47 292.147 1598.52 305.924 1598.43 321.457V457.376H1521.87V337.546C1521.96 327.005 1519.33 318.73 1513.96 312.72C1508.69 306.71 1501.16 303.705 1491.36 303.705C1485.16 303.705 1479.71 305.092 1474.99 307.865C1470.37 310.547 1466.76 314.43 1464.17 319.516C1461.68 324.508 1460.38 330.518 1460.29 337.546ZM1774.36 364.175V244.344H1850.92V457.376H1778.24V416.878H1776.02C1771.4 430.47 1763.31 441.103 1751.75 448.777C1740.19 456.359 1726.46 460.15 1710.56 460.15C1695.67 460.15 1682.64 456.729 1671.45 449.887C1660.35 443.044 1651.71 433.613 1645.51 421.593C1639.41 409.573 1636.31 395.796 1636.22 380.263V244.344H1712.78V364.175C1712.87 374.715 1715.55 382.991 1720.82 389.001C1726.19 395.011 1733.68 398.016 1743.29 398.016C1749.67 398.016 1755.17 396.675 1759.8 393.993C1764.51 391.22 1768.12 387.336 1770.61 382.343C1773.2 377.258 1774.45 371.202 1774.36 364.175Z" fill="#132A13"/>
<defs>
<filter id="filter0_d_232_23" x="-50.4155" y="-0.106919" width="525.244" height="611.516" filterUnits="userSpaceOnUse" color-interpolation-filters="sRGB">
<feFlood flood-opacity="0" result="BackgroundImageFix"/>
<feColorMatrix in="SourceAlpha" type="matrix" values="0 0 0 0 0 0 0 0 0 0 0 0 0 0 0 0 0 0 127 0" result="hardAlpha"/>
<feOffset dx="11.7355" dy="-0.317176"/>
<feGaussianBlur stdDeviation="6.97788"/>
<feComposite in2="hardAlpha" operator="out"/>
<feColorMatrix type="matrix" values="0 0 0 0 0 0 0 0 0 0 0 0 0 0 0 0 0 0 0.25 0"/>
<feBlend mode="normal" in2="BackgroundImageFix" result="effect1_dropShadow_232_23"/>
<feBlend mode="normal" in="SourceGraphic" in2="effect1_dropShadow_232_23" result="shape"/>
</filter>
<filter id="filter1_d_232_23" x="-65.6389" y="4.01637" width="511.922" height="598.195" filterUnits="userSpaceOnUse" color-interpolation-filters="sRGB">
<feFlood flood-opacity="0" result="BackgroundImageFix"/>
<feColorMatrix in="SourceAlpha" type="matrix" values="0 0 0 0 0 0 0 0 0 0 0 0 0 0 0 0 0 0 127 0" result="hardAlpha"/>
<feOffset dx="3.17176" dy="-2.85459"/>
<feGaussianBlur stdDeviation="3.64753"/>
<feComposite in2="hardAlpha" operator="out"/>
<feColorMatrix type="matrix" values="0 0 0 0 0 0 0 0 0 0 0 0 0 0 0 0 0 0 0.62 0"/>
<feBlend mode="normal" in2="BackgroundImageFix" result="effect1_dropShadow_232_23"/>
<feBlend mode="normal" in="SourceGraphic" in2="effect1_dropShadow_232_23" result="shape"/>
</filter>
<filter id="filter2_d_232_23" x="-122.73" y="-24.4663" width="506.069" height="654.776" filterUnits="userSpaceOnUse" color-interpolation-filters="sRGB">
<feFlood flood-opacity="0" result="BackgroundImageFix"/>
<feColorMatrix in="SourceAlpha" type="matrix" values="0 0 0 0 0 0 0 0 0 0 0 0 0 0 0 0 0 0 127 0" result="hardAlpha"/>
<feOffset dx="31.7176" dy="4.44047"/>
<feGaussianBlur stdDeviation="9.32498"/>
<feComposite in2="hardAlpha" operator="out"/>
<feColorMatrix type="matrix" values="0 0 0 0 0 0 0 0 0 0 0 0 0 0 0 0 0 0 0.5 0"/>
<feBlend mode="normal" in2="BackgroundImageFix" result="effect1_dropShadow_232_23"/>
<feBlend mode="normal" in="SourceGraphic" in2="effect1_dropShadow_232_23" result="shape"/>
</filter>
<filter id="filter3_di_232_23" x="-91.963" y="25.5843" width="471.959" height="582.653" filterUnits="userSpaceOnUse" color-interpolation-filters="sRGB">
<feFlood flood-opacity="0" result="BackgroundImageFix"/>
<feColorMatrix in="SourceAlpha" type="matrix" values="0 0 0 0 0 0 0 0 0 0 0 0 0 0 0 0 0 0 127 0" result="hardAlpha"/>
<feOffset dx="7.92941" dy="1.26871"/>
<feGaussianBlur stdDeviation="7.61223"/>
<feComposite in2="hardAlpha" operator="out"/>
<feColorMatrix type="matrix" values="0 0 0 0 0 0 0 0 0 0 0 0 0 0 0 0 0 0 0.25 0"/>
<feBlend mode="normal" in2="BackgroundImageFix" result="effect1_dropShadow_232_23"/>
<feBlend mode="normal" in="SourceGraphic" in2="effect1_dropShadow_232_23" result="shape"/>
<feColorMatrix in="SourceAlpha" type="matrix" values="0 0 0 0 0 0 0 0 0 0 0 0 0 0 0 0 0 0 127 0" result="hardAlpha"/>
<feOffset dx="7.92941" dy="4.75764"/>
<feGaussianBlur stdDeviation="0.634353"/>
<feComposite in2="hardAlpha" operator="arithmetic" k2="-1" k3="1"/>
<feColorMatrix type="matrix" values="0 0 0 0 0 0 0 0 0 0 0 0 0 0 0 0 0 0 0.8 0"/>
<feBlend mode="normal" in2="shape" result="effect2_innerShadow_232_23"/>
</filter>
<filter id="filter4_d_232_23" x="242.975" y="120.103" width="121.479" height="393.299" filterUnits="userSpaceOnUse" color-interpolation-filters="sRGB">
<feFlood flood-opacity="0" result="BackgroundImageFix"/>
<feColorMatrix in="SourceAlpha" type="matrix" values="0 0 0 0 0 0 0 0 0 0 0 0 0 0 0 0 0 0 127 0" result="hardAlpha"/>
<feOffset dy="1.26871"/>
<feGaussianBlur stdDeviation="0.634353"/>
<feComposite in2="hardAlpha" operator="out"/>
<feColorMatrix type="matrix" values="0 0 0 0 0 0 0 0 0 0 0 0 0 0 0 0 0 0 0.25 0"/>
<feBlend mode="normal" in2="BackgroundImageFix" result="effect1_dropShadow_232_23"/>
<feBlend mode="normal" in="SourceGraphic" in2="effect1_dropShadow_232_23" result="shape"/>
</filter>
<filter id="filter5_ddii_232_23" x="203.33" y="109.317" width="172.702" height="113.707" filterUnits="userSpaceOnUse" color-interpolation-filters="sRGB">
<feFlood flood-opacity="0" result="BackgroundImageFix"/>
<feColorMatrix in="SourceAlpha" type="matrix" values="0 0 0 0 0 0 0 0 0 0 0 0 0 0 0 0 0 0 127 0" result="hardAlpha"/>
<feOffset dx="-25.0569" dy="-8.24658"/>
<feGaussianBlur stdDeviation="7.92941"/>
<feComposite in2="hardAlpha" operator="out"/>
<feColorMatrix type="matrix" values="0 0 0 0 0 0 0 0 0 0 0 0 0 0 0 0 0 0 0.25 0"/>
<feBlend mode="normal" in2="BackgroundImageFix" result="effect1_dropShadow_232_23"/>
<feColorMatrix in="SourceAlpha" type="matrix" values="0 0 0 0 0 0 0 0 0 0 0 0 0 0 0 0 0 0 127 0" result="hardAlpha"/>
<feOffset dx="8.88094" dy="-6.97788"/>
<feGaussianBlur stdDeviation="7.37435"/>
<feComposite in2="hardAlpha" operator="out"/>
<feColorMatrix type="matrix" values="0 0 0 0 0 0 0 0 0 0 0 0 0 0 0 0 0 0 0.25 0"/>
<feBlend mode="normal" in2="effect1_dropShadow_232_23" result="effect2_dropShadow_232_23"/>
<feBlend mode="normal" in="SourceGraphic" in2="effect2_dropShadow_232_23" result="shape"/>
<feColorMatrix in="SourceAlpha" type="matrix" values="0 0 0 0 0 0 0 0 0 0 0 0 0 0 0 0 0 0 127 0" result="hardAlpha"/>
<feOffset dx="-2.53741" dy="5.07482"/>
<feGaussianBlur stdDeviation="3.18762"/>
<feComposite in2="hardAlpha" operator="arithmetic" k2="-1" k3="1"/>
<feColorMatrix type="matrix" values="0 0 0 0 0 0 0 0 0 0 0 0 0 0 0 0 0 0 0.25 0"/>
<feBlend mode="normal" in2="shape" result="effect3_innerShadow_232_23"/>
<feColorMatrix in="SourceAlpha" type="matrix" values="0 0 0 0 0 0 0 0 0 0 0 0 0 0 0 0 0 0 127 0" result="hardAlpha"/>
<feOffset dx="0.634353" dy="20.6165"/>
<feGaussianBlur stdDeviation="0.634353"/>
<feComposite in2="hardAlpha" operator="arithmetic" k2="-1" k3="1"/>
<feColorMatrix type="matrix" values="0 0 0 0 1 0 0 0 0 1 0 0 0 0 1 0 0 0 0.65 0"/>
<feBlend mode="normal" in2="effect3_innerShadow_232_23" result="effect4_innerShadow_232_23"/>
</filter>
<filter id="filter6_ddii_232_23" x="203.33" y="404.927" width="172.702" height="113.707" filterUnits="userSpaceOnUse" color-interpolation-filters="sRGB">
<feFlood flood-opacity="0" result="BackgroundImageFix"/>
<feColorMatrix in="SourceAlpha" type="matrix" values="0 0 0 0 0 0 0 0 0 0 0 0 0 0 0 0 0 0 127 0" result="hardAlpha"/>
<feOffset dx="-25.0569" dy="-8.24658"/>
<feGaussianBlur stdDeviation="7.92941"/>
<feComposite in2="hardAlpha" operator="out"/>
<feColorMatrix type="matrix" values="0 0 0 0 0 0 0 0 0 0 0 0 0 0 0 0 0 0 0.25 0"/>
<feBlend mode="normal" in2="BackgroundImageFix" result="effect1_dropShadow_232_23"/>
<feColorMatrix in="SourceAlpha" type="matrix" values="0 0 0 0 0 0 0 0 0 0 0 0 0 0 0 0 0 0 127 0" result="hardAlpha"/>
<feOffset dx="8.88094" dy="-6.97788"/>
<feGaussianBlur stdDeviation="7.37435"/>
<feComposite in2="hardAlpha" operator="out"/>
<feColorMatrix type="matrix" values="0 0 0 0 0 0 0 0 0 0 0 0 0 0 0 0 0 0 0.25 0"/>
<feBlend mode="normal" in2="effect1_dropShadow_232_23" result="effect2_dropShadow_232_23"/>
<feBlend mode="normal" in="SourceGraphic" in2="effect2_dropShadow_232_23" result="shape"/>
<feColorMatrix in="SourceAlpha" type="matrix" values="0 0 0 0 0 0 0 0 0 0 0 0 0 0 0 0 0 0 127 0" result="hardAlpha"/>
<feOffset dx="-2.53741" dy="5.07482"/>
<feGaussianBlur stdDeviation="3.18762"/>
<feComposite in2="hardAlpha" operator="arithmetic" k2="-1" k3="1"/>
<feColorMatrix type="matrix" values="0 0 0 0 0 0 0 0 0 0 0 0 0 0 0 0 0 0 0.25 0"/>
<feBlend mode="normal" in2="shape" result="effect3_innerShadow_232_23"/>
<feColorMatrix in="SourceAlpha" type="matrix" values="0 0 0 0 0 0 0 0 0 0 0 0 0 0 0 0 0 0 127 0" result="hardAlpha"/>
<feOffset dx="0.634353" dy="20.6165"/>
<feGaussianBlur stdDeviation="0.634353"/>
<feComposite in2="hardAlpha" operator="arithmetic" k2="-1" k3="1"/>
<feColorMatrix type="matrix" values="0 0 0 0 1 0 0 0 0 1 0 0 0 0 1 0 0 0 0.65 0"/>
<feBlend mode="normal" in2="effect3_innerShadow_232_23" result="effect4_innerShadow_232_23"/>
</filter>
<filter id="filter7_dd_232_23" x="48.1747" y="84.2621" width="222.891" height="438.972" filterUnits="userSpaceOnUse" color-interpolation-filters="sRGB">
<feFlood flood-opacity="0" result="BackgroundImageFix"/>
<feColorMatrix in="SourceAlpha" type="matrix" values="0 0 0 0 0 0 0 0 0 0 0 0 0 0 0 0 0 0 127 0" result="hardAlpha"/>
<feOffset dx="22.8367" dy="-21.568"/>
<feGaussianBlur stdDeviation="11.2598"/>
<feComposite in2="hardAlpha" operator="out"/>
<feColorMatrix type="matrix" values="0 0 0 0 0 0 0 0 0 0 0 0 0 0 0 0 0 0 0.25 0"/>
<feBlend mode="normal" in2="BackgroundImageFix" result="effect1_dropShadow_232_23"/>
<feColorMatrix in="SourceAlpha" type="matrix" values="0 0 0 0 0 0 0 0 0 0 0 0 0 0 0 0 0 0 127 0" result="hardAlpha"/>
<feOffset dy="1.26871"/>
<feGaussianBlur stdDeviation="0.634353"/>
<feComposite in2="hardAlpha" operator="out"/>
<feColorMatrix type="matrix" values="0 0 0 0 0 0 0 0 0 0 0 0 0 0 0 0 0 0 0.25 0"/>
<feBlend mode="normal" in2="effect1_dropShadow_232_23" result="effect2_dropShadow_232_23"/>
<feBlend mode="normal" in="SourceGraphic" in2="effect2_dropShadow_232_23" result="shape"/>
</filter>
<clipPath id="clip0_232_23">
<rect x="21.2656" y="33.1963" width="564.574" height="564.574" rx="282.287" fill="white"/>
</clipPath>
<clipPath id="clip1_232_23">
<path d="M244.244 135.961C244.244 127.203 251.344 120.103 260.103 120.103H315.609C341.885 120.103 363.185 141.403 363.185 167.679V167.679C363.185 193.955 341.885 215.255 315.609 215.255H260.103C251.344 215.255 244.244 208.155 244.244 199.397V135.961Z" fill="white"/>
</clipPath>
<clipPath id="clip2_232_23">
<path d="M244.244 431.57C244.244 422.811 251.344 415.711 260.103 415.711H315.609C341.885 415.711 363.185 437.012 363.185 463.287V463.287C363.185 489.563 341.885 510.864 315.609 510.864H260.103C251.344 510.864 244.244 503.764 244.244 495.005V431.57Z" fill="white"/>
</clipPath>
</defs>
</svg>
